<?xml version="1.0" encoding="utf-8"?>
<?xml-stylesheet type="text/xsl" href="rss1.xsl"?>
<rss version="2.0" xmlns:atom="http://www.w3.org/2005/Atom" xmlns:content="http://purl.org/rss/1.0/modules/content/" xmlns:dc="http://purl.org/dc/elements/1.1/" xmlns:media="http://search.yahoo.com/mrss/">
<channel>
 <title>Getty</title>
 <link>http://www.gettyimg.com/</link>
 <atom:link href="http://www.gettyimg.com/" rel="self" type="application/rss+xml" />

 
                <item>
                <title><![CDATA[【Cinema Center】SERIES - Eureka! - Season 1 - 1080p Disney+ WEB-DL DDP5.1 H.264-LAZY]]></title>
                <link><![CDATA[https://sharemania.us/threads/eureka-season-1-1080p-disney-web-dl-ddp5-1-h-264-lazy.236386/]]></link>
                <description><![CDATA[<article>
<blockquote class="messageText SelectQuoteContainer ugc baseHtml">
Eureka!:<img src="https://hdbits.org/pic/tvdb_poster/400822.jpg" class="bbCodeImage LbImage" alt="[​IMG]" data-url="https://hdbits.org/pic/tvdb_poster/400822.jpg" style=""> <br>
<br>
<div class="bbCodeBlock bbCodeQuote">
<aside>
<blockquote class="quoteContainer"><div class="quote"><i><b>Synopsis:</b></i><br>
The series tells the story of a young girl inventor who is way ahead of her time. Utilizing creative out-of-the-box thinking, she designs inventions and contraptions in the hopes of making the world a better place and moving her prehistoric community into a more modern era. With the help of her supportive parents, teacher, best friends Pepper and Barry, and beloved pet mammoth Murphy, Eureka is learning to embrace that she is not ordinary… she’s extraordinary.</div><div class="quoteExpand">Click to expand...</div></blockquote>
</aside>
</div>
<div class="ToggleTriggerAnchor bbCodeSpoilerContainer">
<button type="button" class="button bbCodeSpoilerButton ToggleTrigger Tooltip JsOnly" data-target="> .SpoilerTarget"><span>Spoiler: <span class="SpoilerTitle">MediaInfo</span></span></button>
<div class="SpoilerTarget bbCodeSpoilerText">General<br>
Unique ID : 309429329227806569892901277847030697349 (0xE8C9EBCC1AF182254A4F0C7D2C418D85)<br>
Format : Matroska<br>
Format version : Version 4<br>
File size : 1.34 GiB<br>
Duration : 24 min 33 s<br>
Overall bit rate mode : Variable<br>
Overall bit rate : 7 807 kb/s<br>
Frame rate : 23.976 FPS<br>
Encoded date : 2024-01-21 20:08:52 UTC<br>
Writing application : mkvmerge v82.0 ('I'm The President') 64-bit<br>
Writing library : libebml v1.4.5 + libmatroska v1.7.1<br>
<br>
Video<br>
ID : 1<br>
Format : AVC<br>
Format/Info : Advanced Video Codec<br>
Format profile : High@L4<br>
Format settings : CABAC / 4 Ref Frames<br>
Format settings, CABAC : Yes<br>
Format settings, Reference frames : 4 frames<br>
Codec ID : V_MPEG4/ISO/AVC<br>
Duration : 24 min 33 s<br>
Bit rate mode : Variable<br>
Bit rate : 7 546 kb/s<br>
Maximum bit rate : 12.7 Mb/s<br>
Width : 1 920 pixels<br>
Height : 1 080 pixels<br>
Display aspect ratio : 16:9<br>
Frame rate mode : Constant<br>
Frame rate : 23.976 (24000/1001) FPS<br>
Color space : YUV<br>
Chroma subsampling : 4:2:0<br>
Bit depth : 8 bits<br>
Scan type : Progressive<br>
Bits/(Pixel*Frame) : 0.152<br>
Stream size : 1.29 GiB (97%)<br>
Default : Yes<br>
Forced : No<br>
Color range : Limited<br>
Color primaries : BT.709<br>
Transfer characteristics : BT.709<br>
Matrix coefficients : BT.709<br>
<br>
Audio<br>
ID : 2<br>
Format : E-AC-3<br>
Format/Info : Enhanced AC-3<br>
Commercial name : Dolby Digital Plus<br>
Codec ID : A_EAC3<br>
Duration : 24 min 33 s<br>
Bit rate mode : Constant<br>
Bit rate : 256 kb/s<br>
Channel(s) : 6 channels<br>
Channel layout : L R C LFE Ls Rs<br>
Sampling rate : 48.0 kHz<br>
Frame rate : 31.250 FPS (1536 SPF)<br>
Compression mode : Lossy<br>
Stream size : 45.0 MiB (3%)<br>
Language : English<br>
Service kind : Complete Main<br>
Default : Yes<br>
Forced : No<br>
<br>
Text #1<br>
ID : 3<br>
Format : UTF-8<br>
Codec ID : S_TEXT/UTF8<br>
Codec ID/Info : UTF-8 Plain Text<br>
Duration : 24 min 3 s<br>
Bit rate : 105 b/s<br>
Frame rate : 0.458 FPS<br>
Count of elements : 661<br>
Stream size : 18.5 KiB (0%)<br>
Title : SDH<br>
Language : English<br>
Default : No<br>
Forced : No<br>
<br>
Text #2<br>
ID : 4<br>
Format : UTF-8<br>
Codec ID : S_TEXT/UTF8<br>
Codec ID/Info : UTF-8 Plain Text<br>
Duration : 24 min 26 s<br>
Bit rate : 79 b/s<br>
Frame rate : 0.371 FPS<br>
Count of elements : 544<br>
Stream size : 14.3 KiB (0%)<br>
Language : Czech<br>
Default : No<br>
Forced : No<br>
<br>
Text #3<br>
ID : 5<br>
Format : UTF-8<br>
Codec ID : S_TEXT/UTF8<br>
Codec ID/Info : UTF-8 Plain Text<br>
Duration : 23 min 24 s<br>
Bit rate : 77 b/s<br>
Frame rate : 0.230 FPS<br>
Count of elements : 323<br>
Stream size : 13.3 KiB (0%)<br>
Language : Danish<br>
Default : No<br>
Forced : No<br>
<br>
Text #4<br>
ID : 6<br>
Format : UTF-8<br>
Codec ID : S_TEXT/UTF8<br>
Codec ID/Info : UTF-8 Plain Text<br>
Duration : 23 min 25 s<br>
Bit rate : 76 b/s<br>
Frame rate : 0.230 FPS<br>
Count of elements : 323<br>
Stream size : 13.1 KiB (0%)<br>
Language : German<br>
Default : No<br>
Forced : No<br>
<br>
Text #5<br>
ID : 7<br>
Format : UTF-8<br>
Codec ID : S_TEXT/UTF8<br>
Codec ID/Info : UTF-8 Plain Text<br>
Duration : 23 min 24 s<br>
Bit rate : 140 b/s<br>
Frame rate : 0.231 FPS<br>
Count of elements : 325<br>
Stream size : 24.0 KiB (0%)<br>
Language : Greek<br>
Default : No<br>
Forced : No<br>
<br>
Text #6<br>
ID : 8<br>
Format : UTF-8<br>
Codec ID : S_TEXT/UTF8<br>
Codec ID/Info : UTF-8 Plain Text<br>
Duration : 23 min 52 s<br>
Bit rate : 80 b/s<br>
Frame rate : 0.319 FPS<br>
Count of elements : 457<br>
Stream size : 14.1 KiB (0%)<br>
Title : Latin American<br>
Language : Spanish<br>
Default : No<br>
Forced : No<br>
<br>
Text #7<br>
ID : 9<br>
Format : UTF-8<br>
Codec ID : S_TEXT/UTF8<br>
Codec ID/Info : UTF-8 Plain Text<br>
Duration : 23 min 57 s<br>
Bit rate : 91 b/s<br>
Frame rate : 0.357 FPS<br>
Count of elements : 513<br>
Stream size : 16.0 KiB (0%)<br>
Title : European (SDH)<br>
Language : Spanish<br>
Default : No<br>
Forced : No<br>
<br>
Text #8<br>
ID : 10<br>
Format : UTF-8<br>
Codec ID : S_TEXT/UTF8<br>
Codec ID/Info : UTF-8 Plain Text<br>
Duration : 23 min 24 s<br>
Bit rate : 73 b/s<br>
Frame rate : 0.226 FPS<br>
Count of elements : 318<br>
Stream size : 12.5 KiB (0%)<br>
Language : Finnish<br>
Default : No<br>
Forced : No<br>
<br>
Text #9<br>
ID : 11<br>
Format : UTF-8<br>
Codec ID : S_TEXT/UTF8<br>
Codec ID/Info : UTF-8 Plain Text<br>
Duration : 24 min 24 s<br>
Bit rate : 85 b/s<br>
Frame rate : 0.350 FPS<br>
Count of elements : 513<br>
Stream size : 15.3 KiB (0%)<br>
Language : French<br>
Default : No<br>
Forced : No<br>
<br>
Text #10<br>
ID : 12<br>
Format : UTF-8<br>
Codec ID : S_TEXT/UTF8<br>
Codec ID/Info : UTF-8 Plain Text<br>
Duration : 23 min 24 s<br>
Bit rate : 72 b/s<br>
Frame rate : 0.231 FPS<br>
Count of elements : 324<br>
Stream size : 12.4 KiB (0%)<br>
Language : Italian<br>
Default : No<br>
Forced : No<br>
<br>
Text #11<br>
ID : 13<br>
Format : UTF-8<br>
Codec ID : S_TEXT/UTF8<br>
Codec ID/Info : UTF-8 Plain Text<br>
Duration : 24 min 28 s<br>
Bit rate : 88 b/s<br>
Frame rate : 0.308 FPS<br>
Count of elements : 453<br>
Stream size : 15.8 KiB (0%)<br>
Language : Korean<br>
Default : No<br>
Forced : No<br>
<br>
Text #12<br>
ID : 14<br>
Format : UTF-8<br>
Codec ID : S_TEXT/UTF8<br>
Codec ID/Info : UTF-8 Plain Text<br>
Duration : 24 min 28 s<br>
Bit rate : 80 b/s<br>
Frame rate : 0.370 FPS<br>
Count of elements : 544<br>
Stream size : 14.5 KiB (0%)<br>
Language : Dutch<br>
Default : No<br>
Forced : No<br>
<br>
Text #13<br>
ID : 15<br>
Format : UTF-8<br>
Codec ID : S_TEXT/UTF8<br>
Codec ID/Info : UTF-8 Plain Text<br>
Duration : 23 min 24 s<br>
Bit rate : 74 b/s<br>
Frame rate : 0.221 FPS<br>
Count of elements : 310<br>
Stream size : 12.9 KiB (0%)<br>
Language : Norwegian<br>
Default : No<br>
Forced : No<br>
<br>
Text #14<br>
ID : 16<br>
Format : UTF-8<br>
Codec ID : S_TEXT/UTF8<br>
Codec ID/Info : UTF-8 Plain Text<br>
Duration : 23 min 24 s<br>
Bit rate : 67 b/s<br>
Frame rate : 0.205 FPS<br>
Count of elements : 288<br>
Stream size : 11.7 KiB (0%)<br>
Language : Polish<br>
Default : No<br>
Forced : No<br>
<br>
Text #15<br>
ID : 17<br>
Format : UTF-8<br>
Codec ID : S_TEXT/UTF8<br>
Codec ID/Info : UTF-8 Plain Text<br>
Duration : 23 min 54 s<br>
Bit rate : 85 b/s<br>
Frame rate : 0.367 FPS<br>
Count of elements : 526<br>
Stream size : 14.9 KiB (0%)<br>
Title : Brazilian<br>
Language : Portuguese<br>
Default : No<br>
Forced : No<br>
<br>
Text #16<br>
ID : 18<br>
Format : UTF-8<br>
Codec ID : S_TEXT/UTF8<br>
Codec ID/Info : UTF-8 Plain Text<br>
Duration : 23 min 55 s<br>
Bit rate : 83 b/s<br>
Frame rate : 0.249 FPS<br>
Count of elements : 357<br>
Stream size : 14.6 KiB (0%)<br>
Title : European (SDH)<br>
Language : Portuguese<br>
Default : No<br>
Forced : No<br>
<br>
Text #17<br>
ID : 19<br>
Format : UTF-8<br>
Codec ID : S_TEXT/UTF8<br>
Codec ID/Info : UTF-8 Plain Text<br>
Duration : 23 min 28 s<br>
Bit rate : 78 b/s<br>
Frame rate : 0.231 FPS<br>
Count of elements : 325<br>
Stream size : 13.5 KiB (0%)<br>
Language : Romanian<br>
Default : No<br>
Forced : No<br>
<br>
Text #18<br>
ID : 20<br>
Format : UTF-8<br>
Codec ID : S_TEXT/UTF8<br>
Codec ID/Info : UTF-8 Plain Text<br>
Duration : 23 min 24 s<br>
Bit rate : 73 b/s<br>
Frame rate : 0.230 FPS<br>
Count of elements : 323<br>
Stream size : 12.7 KiB (0%)<br>
Language : Swedish<br>
Default : No<br>
Forced : No<br>
<br>
Text #19<br>
ID : 21<br>
Format : UTF-8<br>
Codec ID : S_TEXT/UTF8<br>
Codec ID/Info : UTF-8 Plain Text<br>
Duration : 23 min 25 s<br>
Bit rate : 71 b/s<br>
Frame rate : 0.205 FPS<br>
Count of elements : 288<br>
Stream size : 12.3 KiB (0%)<br>
Language : Turkish<br>
Default : No<br>
Forced : No<br>
<br>
Text #20<br>
ID : 22<br>
Format : UTF-8<br>
Codec ID : S_TEXT/UTF8<br>
Codec ID/Info : UTF-8 Plain Text<br>
Duration : 24 min 29 s<br>
Bit rate : 73 b/s<br>
Frame rate : 0.300 FPS<br>
Count of elements : 441<br>
Stream size : 13.2 KiB (0%)<br>
Title : Traditional, Hong Kong<br>
Language : Chinese<br>
Default : No<br>
Forced : No<br>
<br>
Text #21<br>
ID : 23<br>
Format : UTF-8<br>
Codec ID : S_TEXT/UTF8<br>
Codec ID/Info : UTF-8 Plain Text<br>
Duration : 23 min 54 s<br>
Bit rate : 76 b/s<br>
Frame rate : 0.313 FPS<br>
Count of elements : 449<br>
Stream size : 13.5 KiB (0%)<br>
Title : Simplified<br>
Language : Chinese<br>
Default : No<br>
Forced : No<br>
<br>
Text #22<br>
ID : 24<br>
Format : UTF-8<br>
Codec ID : S_TEXT/UTF8<br>
Codec ID/Info : UTF-8 Plain Text<br>
Duration : 24 min 29 s<br>
Bit rate : 77 b/s<br>
Frame rate : 0.305 FPS<br>
Count of elements : 449<br>
Stream size : 13.9 KiB (0%)<br>
Title : Traditional<br>
Language : Chinese<br>
Default : No<br>
Forced : No<br>
<br>
Menu<br>
00:00:01.043 : en:Intro<br>
00:00:55.013 : en:Intro<br>
00:01:01.478 : en:Scene 1<br>
00:01:15.534 : en:Scene 2<br>
00:12:47.267 : en:Scene 3<br>
00:24:02.442 : en:Credits</div>
</div><br>
Screenshots:<br>
<img src="https://i.imgur.com/fASXlgh.jpg" class="bbCodeImage LbImage" alt="[​IMG]" data-url="https://i.imgur.com/fASXlgh.jpg" style=""> <br>
<br>
<div class="bbCodeBlock bbCodeVfcHH HiddenContent">
<div class="attribution type">Hidden Content:</div>
<blockquote>You must either reply or click 'Like' to see the hidden information contained here.</blockquote>
</div>
<div class="messageTextEndMarker">&nbsp;</div>
</blockquote>
</article>]]></description>
                <author><![CDATA[LazyRips]]></author>
                </item>

                </channel></rss>